<svg width="55" height="54" viewBox="0 0 55 54" fill="none" xmlns="http://www.w3.org/2000/svg">
<path fill-rule="evenodd" clip-rule="evenodd" d="M27.2354 5.16186C30.8746 5.02644 34.5139 5.128 38.1363 5.44961C39.8967 5.43269 41.6402 5.73737 43.2821 6.34674C45.5503 7.37928 47.3784 9.1566 48.4278 11.374C49.0541 12.9821 49.3588 14.6917 49.3419 16.4013C49.3419 19.0588 49.6466 19.956 49.6466 27.0483C49.782 30.603 49.6804 34.1576 49.3419 37.6953C49.3588 39.405 49.0541 41.1146 48.4278 42.7226C47.3784 44.94 45.5503 46.7174 43.2821 47.7499C41.6402 48.3593 39.8967 48.664 38.1363 48.647C35.4111 48.647 34.497 48.9348 27.2354 48.9348C23.5961 49.0702 19.9568 48.9686 16.3344 48.647C14.5741 48.664 12.8306 48.3593 11.1887 47.7499C8.92047 46.7174 7.09237 44.94 6.0429 42.7226C5.4166 41.1146 5.11192 39.405 5.12885 37.6953C5.12885 35.0378 4.82416 34.1407 4.82416 27.0483C4.68875 23.4937 4.79031 19.939 5.12885 16.4013C5.11192 14.6917 5.4166 12.9821 6.0429 11.374C6.56763 10.2738 7.27856 9.27509 8.15876 8.41182C8.86969 7.37928 9.95301 6.6345 11.1887 6.34674C12.8306 5.73737 14.5741 5.43269 16.3344 5.44961C19.9568 5.11108 23.5961 5.02644 27.2354 5.16186ZM27.2354 0.422328C23.4945 0.286913 19.7537 0.388474 16.0298 0.710085C13.7616 0.710085 11.4934 1.0994 9.3775 1.89497C5.68744 3.14756 2.79294 5.99127 1.52342 9.5967C0.558587 11.6279 0.152342 13.8792 0.304684 16.0966C-0.101561 23.3921 -0.101561 30.7045 0.304684 38C0.304684 40.2174 0.710929 42.4349 1.52342 44.4999C2.79294 48.1054 5.70436 50.9491 9.39442 52.1848C11.5272 52.9803 13.7785 53.3696 16.0467 53.3696C19.7706 53.6912 23.5115 53.7928 27.2354 53.6574C30.9762 53.7928 34.7171 53.6912 38.441 53.3696C40.7092 53.3696 42.9774 52.9803 45.0932 52.1848C48.7833 50.9491 51.6947 48.1054 52.9642 44.4999C53.7767 42.4179 54.183 40.2174 54.183 38C54.183 35.0378 54.4877 34.1576 54.4877 27.0653C54.6231 23.409 54.5215 19.7528 54.183 16.1136C54.183 13.8961 53.7767 11.6787 52.9642 9.61363C51.6947 6.0082 48.7833 3.16448 45.0932 1.92882C42.9604 1.13326 40.7092 0.743939 38.441 0.743939C34.7171 0.405401 30.9762 0.303839 27.2354 0.422328ZM27.2354 13.4391C19.669 13.3206 13.44 19.2112 13.3215 26.6082V27.0483C13.3215 34.5639 19.5506 40.6575 27.2354 40.6575C34.9202 40.6575 41.1493 34.5639 41.1493 27.0483C41.1493 19.5328 34.9202 13.4391 27.2354 13.4391ZM27.2354 35.918C22.3096 36.0026 18.2472 32.1772 18.1626 27.3699V27.0483C18.0779 22.2411 21.988 18.2633 26.9138 18.1786H27.2523C32.178 18.094 36.2405 21.9195 36.3251 26.7267V27.0483C36.4097 31.8556 32.4996 35.8334 27.5739 35.918H27.2354ZM41.7586 9.5967C39.9136 9.5967 38.424 11.0524 38.424 12.8467C38.424 14.6409 39.9136 16.0966 41.7586 16.0966C43.6037 16.0966 45.0932 14.6409 45.0932 12.8467C45.0932 11.0524 43.6037 9.5967 41.7586 9.5967Z" fill="white"/>
</svg>
