<svg width="55" height="44" viewBox="0 0 55 44" fill="none" xmlns="http://www.w3.org/2000/svg">
<path fill-rule="evenodd" clip-rule="evenodd" d="M17.7773 43.7024C35.1612 43.8547 49.3967 30.1947 49.549 13.2001V11.1689C51.6649 9.59467 53.5099 7.69885 54.9995 5.54914C52.9683 6.41241 50.8355 7.00485 48.635 7.32646C50.8863 5.93846 52.5959 3.85645 53.4761 1.40205C51.2925 2.58693 48.9566 3.48406 46.5191 4.05957C44.4541 1.77444 41.4749 0.487999 38.3604 0.504926C32.2159 0.58956 27.2563 5.44758 27.1548 11.4397C27.0871 12.2353 27.1886 13.0478 27.4595 13.8095C18.4543 13.3863 10.0586 9.17149 4.45581 2.28225C3.45712 3.99186 2.93239 5.93846 2.94932 7.90198C3.03395 11.5243 4.8282 14.9097 7.80734 17.0764C5.99616 17.0425 4.21884 16.5347 2.66156 15.6037C2.66156 20.8341 6.48704 25.3197 11.7344 26.2507C10.7526 26.5046 9.72007 26.6062 8.70446 26.5554C7.99353 26.6062 7.26568 26.5046 6.5886 26.2507C8.11202 30.7364 12.3437 33.817 17.1848 33.9355C13.207 36.9654 8.31514 38.6412 3.27093 38.6581C2.35688 38.7089 1.4259 38.6243 0.5457 38.3873C5.55606 41.942 11.6159 43.8039 17.7942 43.7024" fill="white"/>
</svg>
